<svg width="212" height="40" viewBox="0 0 212 40" fill="none" xmlns="http://www.w3.org/2000/svg">
<path fill-rule="evenodd" clip-rule="evenodd" d="M11.8671 12.6141L12.2821 6.05809H41.4107L41.1617 13.029H36.1825L42.3236 24.2324L51.2862 13.029H46.8879L47.7178 2.15768C47.6901 1.52144 47.3028 0.248963 45.975 0.248963L9.70946 0C7.96673 0 6.72191 1.02905 6.72191 2.82158L5.97502 12.6141H11.8671ZM39.4191 27.3858L39.0041 33.9418H9.87552L10.1245 26.9708H15.1037L8.96265 15.7675L0 26.9708L4.39834 26.9708L3.56846 37.8422C3.59613 38.4784 3.9834 39.7509 5.3112 39.7509L41.5768 39.9999C43.3195 39.9999 44.5643 38.9708 44.5643 37.1783L45.3112 27.3858L39.4191 27.3858ZM25.0622 28.7138L23.6904 27.4243C18.8182 22.8624 15.6016 19.8439 15.6016 16.1612C15.6016 13.1427 17.8911 10.7885 20.805 10.7885C22.4511 10.7885 24.031 11.5797 25.0622 12.8203C26.0934 11.5797 27.6733 10.7885 29.3195 10.7885C32.2333 10.7885 34.5228 13.1427 34.5228 16.1612C34.5228 19.8439 31.3062 22.8624 26.434 27.4243L25.0622 28.7138ZM72.0265 30.6656C63.7808 30.6656 57.9252 24.6905 57.9252 16.2457C57.9252 7.80089 63.7808 1.82579 72.0265 1.82579C80.2721 1.82579 86.1277 7.80089 86.1277 16.2457C86.1277 24.6905 80.2721 30.6656 72.0265 30.6656ZM72.0265 25.9254C77.3642 25.9254 80.8696 21.942 80.8696 16.2457C80.8696 10.5096 77.3642 6.52621 72.0265 6.52621C66.6887 6.52621 63.1833 10.5096 63.1833 16.2457C63.1833 21.942 66.6887 25.9254 72.0265 25.9254ZM114.29 9.59342C118.911 9.59342 121.699 12.6208 121.699 17.5204V30.2673H116.6V18.1179C116.6 15.6482 115.405 13.9752 113.135 13.9752C110.665 13.9752 108.554 15.9669 108.554 20.8266V30.2673H103.455V18.1179C103.455 15.6482 102.26 13.9752 99.9896 13.9752C97.5199 13.9752 95.4485 15.9669 95.4485 20.8266V30.2673H90.3498V10.1909H95.4485V13.1387C96.6037 10.8283 98.5556 9.59342 101.344 9.59342C104.292 9.59342 106.483 10.9079 107.678 13.2183C109.072 10.8681 111.342 9.59342 114.29 9.59342ZM145.329 17.5204C145.329 12.6606 142.262 9.59342 137.88 9.59342C135.171 9.59342 133.02 10.7486 131.626 13.0192V10.1909H126.527V30.2673H131.626V20.3088C131.626 15.8872 133.936 13.9752 136.446 13.9752C138.796 13.9752 140.23 15.6084 140.23 18.1976V30.2673H145.329V17.5204ZM149.941 6.96438V2.02496H155.319V6.96438H149.941ZM150.101 30.2673V10.1909H155.2V30.2673H150.101ZM160.373 2.38347V30.2673H165.472V2.38347H160.373ZM179.842 30.6656C173.986 30.6656 169.565 26.244 169.565 20.1893C169.565 14.1743 173.986 9.59342 179.922 9.59342C185.777 9.59342 190.199 14.0548 190.199 20.0698C190.199 26.0847 185.777 30.6656 179.842 30.6656ZM179.961 26.2839C183.029 26.2839 185.1 23.8142 185.1 20.1893C185.1 16.4847 182.909 13.9752 179.842 13.9752C176.735 13.9752 174.663 16.4847 174.663 20.1096C174.663 23.8142 176.854 26.2839 179.961 26.2839ZM211.371 10.1909H206.152L201.372 23.8938L196.194 10.1909H190.936L198.863 29.7096L195.317 38.2341H200.456L211.371 10.1909Z" fill="url(#paint0_linear_1535_53713)"/>
<defs>
<linearGradient id="paint0_linear_1535_53713" x1="1.67827e-06" y1="20.0743" x2="211.371" y2="20.0744" gradientUnits="userSpaceOnUse">
<stop stop-color="#333D8E"/>
<stop offset="1" stop-color="#44ADEE"/>
</linearGradient>
</defs>
</svg>
