<svg width="42" height="42" viewBox="0 0 42 42" fill="none" xmlns="http://www.w3.org/2000/svg">
<g clip-path="url(#clip0_1663_68983)">
<rect width="42" height="42" rx="6" fill="#FFF1C5"/>
<g clip-path="url(#clip1_1663_68983)">
<path fill-rule="evenodd" clip-rule="evenodd" d="M17.7833 24.3698L16.2005 32.0074C16.1646 32.1849 16.1896 32.3688 16.2716 32.5313C16.3536 32.6939 16.4882 32.8263 16.655 32.9086C16.8219 32.9909 17.012 33.0187 17.1966 32.9876C17.3812 32.9566 17.5504 32.8684 17.6785 32.7365L29.7708 20.2381H29.7665C29.7672 20.2373 29.7679 20.2366 29.7686 20.2359C29.7694 20.2351 29.7701 20.2343 29.7708 20.2336C29.8656 20.1346 29.9341 20.0148 29.9704 19.8846C30.0072 19.7525 30.0097 19.6136 29.9777 19.4803C29.9457 19.3469 29.8801 19.2233 29.7868 19.1202C29.7816 19.1144 29.7762 19.1087 29.7708 19.1031C29.7694 19.1016 29.768 19.1001 29.7665 19.0986C29.6766 19.006 29.5658 18.9344 29.4426 18.8893L23.2205 16.6385L24.8076 8.99258C24.8434 8.81512 24.8185 8.63123 24.7365 8.46866C24.6545 8.3061 24.5199 8.17367 24.353 8.09136C24.1862 8.00905 23.9961 7.98133 23.8115 8.01238C23.6268 8.04344 23.4577 8.13158 23.3295 8.2635L11.2372 20.7619C11.139 20.8618 11.068 20.9835 11.0304 21.1163C10.9929 21.2491 10.99 21.3888 11.0221 21.5229C11.0542 21.657 11.1202 21.7813 11.2143 21.8848C11.3083 21.9883 11.4275 22.0677 11.5611 22.1159L17.7833 24.3698ZM22.0433 12.4693L13.9359 20.849L20.0932 23.0794L18.9631 28.5325L25.053 22.2381H25.0356L27.0598 20.1541L20.9099 17.9295L22.0433 12.4693Z" fill="#FFBF4A"/>
</g>
</g>
<defs>
<clipPath id="clip0_1663_68983">
<rect width="42" height="42" rx="6" fill="white"/>
</clipPath>
<clipPath id="clip1_1663_68983">
<rect width="42" height="42" fill="white" transform="translate(0 0.400391)"/>
</clipPath>
</defs>
</svg>
