<svg width="39" height="39" viewBox="0 0 39 39" fill="none" xmlns="http://www.w3.org/2000/svg">
<rect width="39" height="39" rx="6" fill="#FD79A8"/>
<path d="M30.9091 19V27.8C30.9091 28.3835 30.6792 28.9431 30.2701 29.3556C29.8609 29.7682 29.3059 30 28.7273 30H11.2727C10.6941 30 10.1391 29.7682 9.72995 29.3556C9.32078 28.9431 9.09091 28.3835 9.09091 27.8V19C8.80158 19 8.5241 18.8841 8.31952 18.6778C8.11493 18.4715 8 18.1917 8 17.9V14.6C8 14.0165 8.22987 13.4569 8.63904 13.0444C9.04821 12.6318 9.60316 12.4 10.1818 12.4H13.64C13.5167 12.0466 13.454 11.6746 13.4545 11.3C13.4545 10.4248 13.7993 9.58542 14.4131 8.96655C15.0269 8.34768 15.8593 8 16.7273 8C17.8182 8 18.7782 8.55 19.3782 9.364V9.353L20 10.2L20.6218 9.353V9.364C21.2218 8.55 22.1818 8 23.2727 8C24.1407 8 24.9731 8.34768 25.5869 8.96655C26.2007 9.58542 26.5455 10.4248 26.5455 11.3C26.546 11.6746 26.4833 12.0466 26.36 12.4H29.8182C30.3968 12.4 30.9518 12.6318 31.361 13.0444C31.7701 13.4569 32 14.0165 32 14.6V17.9C32 18.1917 31.8851 18.4715 31.6805 18.6778C31.4759 18.8841 31.1984 19 30.9091 19ZM11.2727 27.8H18.9091V19H11.2727V27.8ZM28.7273 27.8V19H21.0909V27.8H28.7273ZM16.7273 10.2C16.4379 10.2 16.1605 10.3159 15.9559 10.5222C15.7513 10.7285 15.6364 11.0083 15.6364 11.3C15.6364 11.5917 15.7513 11.8715 15.9559 12.0778C16.1605 12.2841 16.4379 12.4 16.7273 12.4C17.0166 12.4 17.2941 12.2841 17.4987 12.0778C17.7032 11.8715 17.8182 11.5917 17.8182 11.3C17.8182 11.0083 17.7032 10.7285 17.4987 10.5222C17.2941 10.3159 17.0166 10.2 16.7273 10.2ZM23.2727 10.2C22.9834 10.2 22.7059 10.3159 22.5013 10.5222C22.2968 10.7285 22.1818 11.0083 22.1818 11.3C22.1818 11.5917 22.2968 11.8715 22.5013 12.0778C22.7059 12.2841 22.9834 12.4 23.2727 12.4C23.5621 12.4 23.8395 12.2841 24.0441 12.0778C24.2487 11.8715 24.3636 11.5917 24.3636 11.3C24.3636 11.0083 24.2487 10.7285 24.0441 10.5222C23.8395 10.3159 23.5621 10.2 23.2727 10.2ZM10.1818 14.6V16.8H18.9091V14.6H10.1818ZM21.0909 14.6V16.8H29.8182V14.6H21.0909Z" fill="#FFE9F1"/>
</svg>
