<svg width="39" height="39" viewBox="0 0 39 39" fill="none" xmlns="http://www.w3.org/2000/svg">
<rect width="39" height="39" rx="6" fill="#00CEC9"/>
<path d="M18.6667 27H21.3333C22.0667 27 22.6667 26.4 22.6667 25.6667C22.6667 24.9333 22.0667 24.3333 21.3333 24.3333H18.6667C17.9333 24.3333 17.3333 24.9333 17.3333 25.6667C17.3333 26.4 17.9333 27 18.6667 27ZM8 12.3333C8 13.0667 8.6 13.6667 9.33333 13.6667H30.6667C31.4 13.6667 32 13.0667 32 12.3333C32 11.6 31.4 11 30.6667 11H9.33333C8.6 11 8 11.6 8 12.3333ZM13.3333 20.3333H26.6667C27.4 20.3333 28 19.7333 28 19C28 18.2667 27.4 17.6667 26.6667 17.6667H13.3333C12.6 17.6667 12 18.2667 12 19C12 19.7333 12.6 20.3333 13.3333 20.3333Z" fill="#DCFFFE"/>
</svg>
