<svg width="39" height="39" viewBox="0 0 39 39" fill="none" xmlns="http://www.w3.org/2000/svg">
<rect width="39" height="39" rx="6" fill="#6576BD"/>
<path d="M24.9712 18.2317H15.0046C14.3193 18.2317 13.7587 18.8021 13.7587 19.4992C13.7587 20.1963 14.3193 20.7667 15.0046 20.7667H24.9712C25.6564 20.7667 26.2171 20.1963 26.2171 19.4992C26.2171 18.8021 25.6564 18.2317 24.9712 18.2317ZM28.7087 9.35922H27.4629V8.09172C27.4629 7.39459 26.9023 6.82422 26.2171 6.82422C25.5318 6.82422 24.9712 7.39459 24.9712 8.09172V9.35922H15.0046V8.09172C15.0046 7.39459 14.4439 6.82422 13.7587 6.82422C13.0735 6.82422 12.5129 7.39459 12.5129 8.09172V9.35922H11.2671C10.6062 9.35922 9.97246 9.6263 9.50518 10.1017C9.0379 10.5771 8.77539 11.2219 8.77539 11.8942V29.6392C8.77539 30.3115 9.0379 30.9563 9.50518 31.4317C9.97246 31.9071 10.6062 32.1742 11.2671 32.1742H28.7087C30.0791 32.1742 31.2004 31.0335 31.2004 29.6392V11.8942C31.2004 10.5 30.0791 9.35922 28.7087 9.35922ZM27.4629 29.6392H12.5129C11.8277 29.6392 11.2671 29.0688 11.2671 28.3717V15.6967H28.7087V28.3717C28.7087 29.0688 28.1481 29.6392 27.4629 29.6392ZM21.2337 23.3017H15.0046C14.3193 23.3017 13.7587 23.8721 13.7587 24.5692C13.7587 25.2663 14.3193 25.8367 15.0046 25.8367H21.2337C21.9189 25.8367 22.4796 25.2663 22.4796 24.5692C22.4796 23.8721 21.9189 23.3017 21.2337 23.3017Z" fill="#E8EDFF"/>
</svg>
