<svg width="39" height="39" viewBox="0 0 39 39" fill="none" xmlns="http://www.w3.org/2000/svg">
<rect width="39" height="39" rx="6" fill="#FFBF4A"/>
<g clip-path="url(#clip0_1636_59321)">
<path fill-rule="evenodd" clip-rule="evenodd" d="M16.7833 22.3698L15.2005 30.0074C15.1646 30.1849 15.1896 30.3688 15.2716 30.5313C15.3536 30.6939 15.4882 30.8263 15.655 30.9086C15.8219 30.9909 16.012 31.0187 16.1966 30.9876C16.3812 30.9566 16.5504 30.8684 16.6785 30.7365L28.7708 18.2381H28.7665C28.7672 18.2373 28.7679 18.2366 28.7686 18.2359C28.7694 18.2351 28.7701 18.2343 28.7708 18.2336C28.8656 18.1346 28.9341 18.0148 28.9704 17.8846C29.0072 17.7525 29.0097 17.6136 28.9777 17.4803C28.9457 17.3469 28.8801 17.2233 28.7868 17.1202C28.7816 17.1144 28.7762 17.1087 28.7708 17.1031C28.7694 17.1016 28.768 17.1001 28.7665 17.0986C28.6766 17.006 28.5658 16.9344 28.4426 16.8893L22.2205 14.6385L23.8076 6.99258C23.8434 6.81512 23.8185 6.63123 23.7365 6.46866C23.6545 6.3061 23.5199 6.17367 23.353 6.09136C23.1862 6.00905 22.9961 5.98133 22.8115 6.01238C22.6268 6.04344 22.4577 6.13158 22.3295 6.2635L10.2372 18.7619C10.139 18.8618 10.068 18.9835 10.0304 19.1163C9.99289 19.2491 9.99004 19.3888 10.0221 19.5229C10.0542 19.657 10.1202 19.7813 10.2143 19.8848C10.3083 19.9883 10.4275 20.0677 10.5611 20.1159L16.7833 22.3698ZM21.0433 10.4693L12.9359 18.849L19.0932 21.0794L17.9631 26.5325L24.053 20.2381H24.0356L26.0598 18.1541L19.9099 15.9295L21.0433 10.4693Z" fill="#FFF1C5"/>
</g>
<defs>
<clipPath id="clip0_1636_59321">
<rect width="24" height="24" fill="white" transform="translate(8 7)"/>
</clipPath>
</defs>
</svg>
