<svg width="24" height="24" viewBox="0 0 24 24" fill="none" xmlns="http://www.w3.org/2000/svg">
<path d="M4.19869 17.7798L9.49869 12.4798L12.7487 15.7298C13.1587 16.1398 13.8187 16.1198 14.1987 15.6898L21.3687 7.61981C21.7187 7.22981 21.6987 6.62981 21.3287 6.24981C21.2326 6.154 21.118 6.07876 20.9919 6.02865C20.8658 5.97855 20.7308 5.95465 20.5951 5.95839C20.4594 5.96213 20.326 5.99344 20.2028 6.05042C20.0796 6.1074 19.9694 6.18885 19.8787 6.28981L13.4887 13.4698L10.1987 10.1798C10.1062 10.0871 9.99629 10.0136 9.87532 9.96338C9.75434 9.9132 9.62466 9.88737 9.49369 9.88737C9.36273 9.88737 9.23304 9.9132 9.11207 9.96338C8.9911 10.0136 8.88121 10.0871 8.78869 10.1798L2.69869 16.2798C2.60599 16.3723 2.53244 16.4822 2.48226 16.6032C2.43208 16.7242 2.40625 16.8538 2.40625 16.9848C2.40625 17.1158 2.43208 17.2455 2.48226 17.3664C2.53244 17.4874 2.60599 17.5973 2.69869 17.6898L2.78869 17.7798C3.17869 18.1698 3.81869 18.1698 4.19869 17.7798Z" fill="#0C1122"/>
</svg>
