<svg width="16" height="16" viewBox="0 0 16 16" fill="none" xmlns="http://www.w3.org/2000/svg">
<path fill-rule="evenodd" clip-rule="evenodd" d="M5 1.33333C5 0.979711 5.14048 0.640573 5.39052 0.390524C5.64057 0.140476 5.97971 0 6.33333 0C6.68696 0 7.02609 0.140476 7.27614 0.390524C7.52619 0.640573 7.66667 0.979711 7.66667 1.33333C7.66667 1.68696 7.52619 2.02609 7.27614 2.27614C7.02609 2.52619 6.68696 2.66667 6.33333 2.66667C5.97971 2.66667 5.64057 2.52619 5.39052 2.27614C5.14048 2.02609 5 1.68696 5 1.33333ZM10.3333 1.33333C10.3333 0.979711 10.4738 0.640573 10.7239 0.390524C10.9739 0.140476 11.313 0 11.6667 0C12.0203 0 12.3594 0.140476 12.6095 0.390524C12.8595 0.640573 13 0.979711 13 1.33333C13 1.68696 12.8595 2.02609 12.6095 2.27614C12.3594 2.52619 12.0203 2.66667 11.6667 2.66667C11.313 2.66667 10.9739 2.52619 10.7239 2.27614C10.4738 2.02609 10.3333 1.68696 10.3333 1.33333ZM5 8C5 7.64638 5.14048 7.30724 5.39052 7.05719C5.64057 6.80714 5.97971 6.66667 6.33333 6.66667C6.68696 6.66667 7.02609 6.80714 7.27614 7.05719C7.52619 7.30724 7.66667 7.64638 7.66667 8C7.66667 8.35362 7.52619 8.69276 7.27614 8.94281C7.02609 9.19286 6.68696 9.33333 6.33333 9.33333C5.97971 9.33333 5.64057 9.19286 5.39052 8.94281C5.14048 8.69276 5 8.35362 5 8ZM10.3333 8C10.3333 7.64638 10.4738 7.30724 10.7239 7.05719C10.9739 6.80714 11.313 6.66667 11.6667 6.66667C12.0203 6.66667 12.3594 6.80714 12.6095 7.05719C12.8595 7.30724 13 7.64638 13 8C13 8.35362 12.8595 8.69276 12.6095 8.94281C12.3594 9.19286 12.0203 9.33333 11.6667 9.33333C11.313 9.33333 10.9739 9.19286 10.7239 8.94281C10.4738 8.69276 10.3333 8.35362 10.3333 8ZM5 14.6667C5 14.313 5.14048 13.9739 5.39052 13.7239C5.64057 13.4738 5.97971 13.3333 6.33333 13.3333C6.68696 13.3333 7.02609 13.4738 7.27614 13.7239C7.52619 13.9739 7.66667 14.313 7.66667 14.6667C7.66667 15.0203 7.52619 15.3594 7.27614 15.6095C7.02609 15.8595 6.68696 16 6.33333 16C5.97971 16 5.64057 15.8595 5.39052 15.6095C5.14048 15.3594 5 15.0203 5 14.6667ZM10.3333 14.6667C10.3333 14.313 10.4738 13.9739 10.7239 13.7239C10.9739 13.4738 11.313 13.3333 11.6667 13.3333C12.0203 13.3333 12.3594 13.4738 12.6095 13.7239C12.8595 13.9739 13 14.313 13 14.6667C13 15.0203 12.8595 15.3594 12.6095 15.6095C12.3594 15.8595 12.0203 16 11.6667 16C11.313 16 10.9739 15.8595 10.7239 15.6095C10.4738 15.3594 10.3333 15.0203 10.3333 14.6667Z" fill="#888787"/>
</svg>
