<svg width="42" height="42" viewBox="0 0 42 42" fill="none" xmlns="http://www.w3.org/2000/svg">
<rect width="42" height="42" rx="6" fill="#E8EDFF"/>
<path d="M26.8909 19.6346H16.1576C15.4196 19.6346 14.8159 20.2489 14.8159 20.9996C14.8159 21.7504 15.4196 22.3646 16.1576 22.3646H26.8909C27.6288 22.3646 28.2326 21.7504 28.2326 20.9996C28.2326 20.2489 27.6288 19.6346 26.8909 19.6346ZM30.9159 10.0796H29.5742V8.71461C29.5742 7.96386 28.9705 7.34961 28.2326 7.34961C27.4946 7.34961 26.8909 7.96386 26.8909 8.71461V10.0796H16.1576V8.71461C16.1576 7.96386 15.5538 7.34961 14.8159 7.34961C14.078 7.34961 13.4742 7.96386 13.4742 8.71461V10.0796H12.1326C11.4209 10.0796 10.7384 10.3672 10.2351 10.8792C9.73193 11.3912 9.44922 12.0856 9.44922 12.8096V31.9196C9.44922 32.6437 9.73193 33.338 10.2351 33.85C10.7384 34.362 11.4209 34.6496 12.1326 34.6496H30.9159C32.3917 34.6496 33.5992 33.4211 33.5992 31.9196V12.8096C33.5992 11.3081 32.3917 10.0796 30.9159 10.0796ZM29.5742 31.9196H13.4742C12.7363 31.9196 12.1326 31.3054 12.1326 30.5546V16.9046H30.9159V30.5546C30.9159 31.3054 30.3121 31.9196 29.5742 31.9196ZM22.8659 25.0946H16.1576C15.4196 25.0946 14.8159 25.7089 14.8159 26.4596C14.8159 27.2104 15.4196 27.8246 16.1576 27.8246H22.8659C23.6038 27.8246 24.2076 27.2104 24.2076 26.4596C24.2076 25.7089 23.6038 25.0946 22.8659 25.0946Z" fill="#6576BD"/>
</svg>
