<svg width="24" height="24" viewBox="0 0 24 24" fill="none" xmlns="http://www.w3.org/2000/svg">
<path d="M3 18H21V6H3V18ZM1 5C1 4.73478 1.10536 4.48043 1.29289 4.29289C1.48043 4.10536 1.73478 4 2 4H22C22.2652 4 22.5196 4.10536 22.7071 4.29289C22.8946 4.48043 23 4.73478 23 5V19C23 19.2652 22.8946 19.5196 22.7071 19.7071C22.5196 19.8946 22.2652 20 22 20H2C1.73478 20 1.48043 19.8946 1.29289 19.7071C1.10536 19.5196 1 19.2652 1 19V5ZM9 10C9 9.73478 8.89464 9.48043 8.70711 9.29289C8.51957 9.10536 8.26522 9 8 9C7.73478 9 7.48043 9.10536 7.29289 9.29289C7.10536 9.48043 7 9.73478 7 10C7 10.2652 7.10536 10.5196 7.29289 10.7071C7.48043 10.8946 7.73478 11 8 11C8.26522 11 8.51957 10.8946 8.70711 10.7071C8.89464 10.5196 9 10.2652 9 10ZM11 10C11 10.7956 10.6839 11.5587 10.1213 12.1213C9.55871 12.6839 8.79565 13 8 13C7.20435 13 6.44129 12.6839 5.87868 12.1213C5.31607 11.5587 5 10.7956 5 10C5 9.20435 5.31607 8.44129 5.87868 7.87868C6.44129 7.31607 7.20435 7 8 7C8.79565 7 9.55871 7.31607 10.1213 7.87868C10.6839 8.44129 11 9.20435 11 10ZM8.002 16C7.035 16 6.162 16.39 5.527 17.025L4.113 15.611C4.62324 15.0997 5.22945 14.6941 5.89684 14.4177C6.56422 14.1412 7.27962 13.9993 8.002 14C8.72427 13.9993 9.43958 14.1412 10.1069 14.4175C10.7743 14.6938 11.3805 15.099 11.891 15.61L10.477 17.025C10.1524 16.6994 9.76666 16.4412 9.34189 16.2653C8.91712 16.0894 8.46175 15.9992 8.002 16ZM13 9V15H15V9H13ZM17 9V15H19V9H17Z" fill="black"/>
</svg>
