<svg width="42" height="42" viewBox="0 0 42 42" fill="none" xmlns="http://www.w3.org/2000/svg">
<g clip-path="url(#clip0_1830_69163)">
<rect width="42" height="42" rx="6" fill="#DFDFDF"/>
<path d="M19.6667 29H22.3333C23.0667 29 23.6667 28.4 23.6667 27.6667C23.6667 26.9333 23.0667 26.3333 22.3333 26.3333H19.6667C18.9333 26.3333 18.3333 26.9333 18.3333 27.6667C18.3333 28.4 18.9333 29 19.6667 29ZM9 14.3333C9 15.0667 9.6 15.6667 10.3333 15.6667H31.6667C32.4 15.6667 33 15.0667 33 14.3333C33 13.6 32.4 13 31.6667 13H10.3333C9.6 13 9 13.6 9 14.3333ZM14.3333 22.3333H27.6667C28.4 22.3333 29 21.7333 29 21C29 20.2667 28.4 19.6667 27.6667 19.6667H14.3333C13.6 19.6667 13 20.2667 13 21C13 21.7333 13.6 22.3333 14.3333 22.3333Z" fill="#A4A4A4"/>
</g>
<defs>
<clipPath id="clip0_1830_69163">
<rect width="42" height="42" rx="6" fill="white"/>
</clipPath>
</defs>
</svg>
