<svg width="42" height="42" viewBox="0 0 42 42" fill="none" xmlns="http://www.w3.org/2000/svg">
<g clip-path="url(#clip0_1663_68972)">
<rect width="42" height="42" rx="6" fill="#FFE9F1"/>
<path d="M31.9091 21V29.8C31.9091 30.3835 31.6792 30.9431 31.2701 31.3556C30.8609 31.7682 30.3059 32 29.7273 32H12.2727C11.6941 32 11.1391 31.7682 10.7299 31.3556C10.3208 30.9431 10.0909 30.3835 10.0909 29.8V21C9.80158 21 9.5241 20.8841 9.31952 20.6778C9.11493 20.4715 9 20.1917 9 19.9V16.6C9 16.0165 9.22987 15.4569 9.63904 15.0444C10.0482 14.6318 10.6032 14.4 11.1818 14.4H14.64C14.5167 14.0466 14.454 13.6746 14.4545 13.3C14.4545 12.4248 14.7993 11.5854 15.4131 10.9665C16.0269 10.3477 16.8593 10 17.7273 10C18.8182 10 19.7782 10.55 20.3782 11.364V11.353L21 12.2L21.6218 11.353V11.364C22.2218 10.55 23.1818 10 24.2727 10C25.1407 10 25.9731 10.3477 26.5869 10.9665C27.2007 11.5854 27.5455 12.4248 27.5455 13.3C27.546 13.6746 27.4833 14.0466 27.36 14.4H30.8182C31.3968 14.4 31.9518 14.6318 32.361 15.0444C32.7701 15.4569 33 16.0165 33 16.6V19.9C33 20.1917 32.8851 20.4715 32.6805 20.6778C32.4759 20.8841 32.1984 21 31.9091 21ZM12.2727 29.8H19.9091V21H12.2727V29.8ZM29.7273 29.8V21H22.0909V29.8H29.7273ZM17.7273 12.2C17.4379 12.2 17.1605 12.3159 16.9559 12.5222C16.7513 12.7285 16.6364 13.0083 16.6364 13.3C16.6364 13.5917 16.7513 13.8715 16.9559 14.0778C17.1605 14.2841 17.4379 14.4 17.7273 14.4C18.0166 14.4 18.2941 14.2841 18.4987 14.0778C18.7032 13.8715 18.8182 13.5917 18.8182 13.3C18.8182 13.0083 18.7032 12.7285 18.4987 12.5222C18.2941 12.3159 18.0166 12.2 17.7273 12.2ZM24.2727 12.2C23.9834 12.2 23.7059 12.3159 23.5013 12.5222C23.2968 12.7285 23.1818 13.0083 23.1818 13.3C23.1818 13.5917 23.2968 13.8715 23.5013 14.0778C23.7059 14.2841 23.9834 14.4 24.2727 14.4C24.5621 14.4 24.8395 14.2841 25.0441 14.0778C25.2487 13.8715 25.3636 13.5917 25.3636 13.3C25.3636 13.0083 25.2487 12.7285 25.0441 12.5222C24.8395 12.3159 24.5621 12.2 24.2727 12.2ZM11.1818 16.6V18.8H19.9091V16.6H11.1818ZM22.0909 16.6V18.8H30.8182V16.6H22.0909Z" fill="#FD79A8"/>
</g>
<defs>
<clipPath id="clip0_1663_68972">
<rect width="42" height="42" rx="6" fill="white"/>
</clipPath>
</defs>
</svg>
