<svg width="24" height="24" viewBox="0 0 24 24" fill="none" xmlns="http://www.w3.org/2000/svg">
<path d="M8.84838 17.8252L11.9984 15.9252L15.1484 17.8502L14.3234 14.2502L17.0984 11.8502L13.4484 11.5252L11.9984 8.1252L10.5484 11.5002L6.89838 11.8252L9.67338 14.2502L8.84838 17.8252ZM11.9984 18.2752L7.84838 20.7752C7.66504 20.8919 7.47338 20.9419 7.27338 20.9252C7.07338 20.9085 6.89838 20.8419 6.74838 20.7252C6.59838 20.6085 6.48171 20.4625 6.39838 20.2872C6.31504 20.1119 6.29838 19.9162 6.34838 19.7002L7.44838 14.9752L3.77338 11.8002C3.60671 11.6502 3.50271 11.4792 3.46138 11.2872C3.42004 11.0952 3.43238 10.9079 3.49838 10.7252C3.56504 10.5419 3.66504 10.3919 3.79838 10.2752C3.93171 10.1585 4.11504 10.0835 4.34838 10.0502L9.19838 9.6252L11.0734 5.1752C11.1567 4.9752 11.286 4.8252 11.4614 4.7252C11.6367 4.6252 11.8157 4.5752 11.9984 4.5752C12.1817 4.5752 12.3607 4.6252 12.5354 4.7252C12.71 4.8252 12.8394 4.9752 12.9234 5.1752L14.7984 9.6252L19.6484 10.0502C19.8817 10.0835 20.065 10.1585 20.1984 10.2752C20.3317 10.3919 20.4317 10.5419 20.4984 10.7252C20.565 10.9085 20.5777 11.0962 20.5364 11.2882C20.495 11.4802 20.3907 11.6509 20.2234 11.8002L16.5484 14.9752L17.6484 19.7002C17.6984 19.9169 17.6817 20.1129 17.5984 20.2882C17.515 20.4635 17.3984 20.6092 17.2484 20.7252C17.0984 20.8419 16.9234 20.9085 16.7234 20.9252C16.5234 20.9419 16.3317 20.8919 16.1484 20.7752L11.9984 18.2752Z" fill="#0C1122"/>
</svg>
